<?xml version="1.0" encoding="UTF-8" standalone="no"?>
<!-- Created with Inkscape (http://www.inkscape.org/) -->

<svg
   xmlns:dc="http://purl.org/dc/elements/1.1/"
   xmlns:cc="http://creativecommons.org/ns#"
   xmlns:rdf="http://www.w3.org/1999/02/22-rdf-syntax-ns#"
   xmlns:svg="http://www.w3.org/2000/svg"
   xmlns="http://www.w3.org/2000/svg"
   xmlns:sodipodi="http://sodipodi.sourceforge.net/DTD/sodipodi-0.dtd"
   xmlns:inkscape="http://www.inkscape.org/namespaces/inkscape"
   width="594.14062"
   height="65.784508"
   id="svg3164"
   version="1.1"
   inkscape:version="0.48.4 r9939"
   sodipodi:docname="me.svg"
   inkscape:export-filename="/home/milan/Programme/zvynar.github.com/img/me.png"
   inkscape:export-xdpi="90"
   inkscape:export-ydpi="90">
  <defs
     id="defs3166" />
  <sodipodi:namedview
     id="base"
     pagecolor="#ffffff"
     bordercolor="#666666"
     borderopacity="1.0"
     inkscape:pageopacity="0.0"
     inkscape:pageshadow="2"
     inkscape:zoom="1"
     inkscape:cx="174.03778"
     inkscape:cy="46.464292"
     inkscape:document-units="px"
     inkscape:current-layer="g3109"
     showgrid="false"
     inkscape:window-width="1366"
     inkscape:window-height="742"
     inkscape:window-x="0"
     inkscape:window-y="0"
     inkscape:window-maximized="1"
     fit-margin-top="0"
     fit-margin-left="0"
     fit-margin-right="0"
     fit-margin-bottom="0" />
  <metadata
     id="metadata3169">
    <rdf:RDF>
      <cc:Work
         rdf:about="">
        <dc:format>image/svg+xml</dc:format>
        <dc:type
           rdf:resource="http://purl.org/dc/dcmitype/StillImage" />
        <dc:title />
      </cc:Work>
    </rdf:RDF>
  </metadata>
  <g
     inkscape:label="Layer 1"
     inkscape:groupmode="layer"
     id="layer1"
     transform="translate(70.037386,-222.0116)">
    <g
       transform="matrix(3.7664711,0,0,3.7664711,-1132.6205,-1938.1383)"
       id="g3109">
      <path
         style="fill:#000000;stroke:none"
         inkscape:connector-curvature="0"
         id="path3071"
         d="m 358.50789,576.744 -0.24958,-0.31064 -0.16696,-0.20553 -0.15489,-0.20146 -0.26564,-0.25269 -0.21809,-0.17992 -0.41086,-0.17049 -0.37463,-0.0129 -0.36965,0.0768 -0.40941,0.17453 -0.35717,0.21765 -0.36006,0.27627 -0.38852,0.33356 -0.40527,0.3477 -0.45734,0.37263 -0.48327,0.41913 -0.5101,0.44272 -0.50691,0.49257 -0.49687,0.53302 -0.51825,0.58287 -0.48633,0.65496 -0.47292,0.74663 -0.40457,0.83825 -0.33525,0.89755 -0.29774,0.96899 -0.1815,1.04109 -0.0699,1.03636 0.014,1.04446 0.17246,0.99122 0.29917,0.88879 0.45185,0.79043 0.69114,0.60106 0.86238,0.39487 1.01799,0.13208 1.1519,-0.11659 1.2966,-0.3194 1.36042,-0.47101 0.73324,-0.30121 0.73475,-0.30188 0.72656,-0.35781 0.72504,-0.35713 0.70467,-0.40094 0.70303,-0.40093 0.65889,-0.4225 0.66499,-0.42586 0.57968,-0.44879 0.58379,-0.45417 0.94559,-0.95887 0.69743,-1.01413 0.43793,-1.06871 0.17872,-1.11589 -0.0577,-1.15968 -0.31687,-1.20482 -0.57368,-1.20214 -0.85092,-1.17653 -1.09062,-1.08487 -1.35868,-0.969 -1.49798,-0.73448 -0.84706,-0.25135 -0.84464,-0.24594 -0.8908,-0.11388 -0.88981,-0.10715 -0.85871,0.0546 -0.84233,0.06 -0.82816,0.18465 -0.81957,0.18732 -0.75215,0.25605 -0.74199,0.2527 0.12077,0.19204 0.74199,-0.25269 0.73257,-0.25 0.83189,-0.0977 0.82241,-0.10108 0.81736,0.0155 0.80195,0.0107 0.81427,0.15634 0.81421,0.15026 0.76152,0.2601 0.75892,0.25338 1.34137,0.67247 1.22412,0.87803 0.98617,0.98178 0.76746,1.06535 0.51459,1.0842 0.28732,1.08152 0.0488,1.03839 -0.15628,0.99526 -0.3935,0.95282 -0.63162,0.92113 -0.87903,0.88745 -0.5504,0.42519 -0.55449,0.43059 -0.63715,0.40902 -0.64224,0.41306 -0.68569,0.39084 -0.68496,0.39016 -0.70366,0.34634 -0.70203,0.34637 -0.70931,0.29109 -0.71158,0.29245 -1.29925,0.45215 -1.1928,0.29581 -0.96616,0.10377 -0.73377,-0.0876 -0.57798,-0.2655 -0.47873,-0.4097 -0.34522,-0.61656 -0.2687,-0.78166 -0.159,-0.89957 -0.014,-0.97774 0.0633,-0.98651 0.16735,-0.98111 0.2842,-0.92182 0.32101,-0.8605 0.37739,-0.78906 0.44309,-0.70417 0.45545,-0.61992 0.49609,-0.56065 0.47725,-0.52155 0.47918,-0.47505 0.49052,-0.43665 0.46894,-0.41644 0.45374,-0.37466 0.40573,-0.35578 0.37486,-0.32614 0.31457,-0.25134 0.28365,-0.17722 0.29735,-0.13411 0.20252,-0.0546 0.10865,-0.0134 0.15966,0.0498 0.14343,0.0842 0.28216,0.18666 0.21936,0.14959 0.26078,0.14689 0.36524,0.21698 z"
         __comy="584.746"
         __comx="356.956"
         __timestamp="0x140f947c5a9" />
      <path
         style="fill:#000000;stroke:none"
         inkscape:connector-curvature="0"
         id="path3073"
         d="m 372.314,573.65087 -0.203,0.30623 -0.133,0.3336 -0.157,0.33878 -0.081,0.44307 -0.104,0.47119 -0.13,0.57474 -0.126,0.65833 -0.083,0.71749 -0.175,0.80331 -0.204,0.88245 -0.266,0.92758 -0.334,1.0119 -0.3,1.03779 -0.332,1.03112 -0.33,0.98823 -0.301,0.92388 -0.233,0.84695 -0.233,0.78037 -0.135,0.63318 -0.137,0.54811 -0.034,0.42532 -0.036,0.25224 -0.003,0.23522 -0.002,0.12057 0.006,0.14424 0.079,0.18122 0.024,0.0621 0.099,0.1716 0.418,0.24188 0.432,0.0236 0.38,-0.0311 0.6,-0.14646 0.572,-0.24928 0.67,-0.38834 0.721,-0.50373 0.78,-0.62208 0.808,-0.74265 0.774,-0.79147 0.712,-0.84991 0.579,-0.87579 0.447,-0.83364 0.286,-0.82771 -0.038,-0.79073 -0.32,-0.69827 -0.65,-0.59619 -0.96,-0.40018 -1.141,-0.24187 -1.271,-0.0236 -1.335,0.18714 -1.334,0.36319 -1.237,0.53479 -0.998,0.63392 -0.828,0.69088 -0.571,0.66498 0.286,0.13388 0.545,-0.63835 0.943,-0.51557 1.036,-0.47636 1.19,-0.38168 1.226,-0.26481 1.158,-0.15016 1.025,0.0236 0.893,0.19306 0.68,0.27516 0.399,0.36985 0.206,0.45935 0.027,0.56142 -0.239,0.66795 -0.406,0.75892 -0.536,0.81292 -0.665,0.79147 -0.736,0.75301 -0.767,0.70493 -0.729,0.58436 -0.657,0.4623 -0.576,0.33582 -0.412,0.18418 -0.384,0.0954 -0.211,0.017 -0.027,0.0236 0.09,0.0488 0.033,0.0266 -0.041,-0.0821 -0.052,-0.0599 0.005,-0.002 -0.002,-0.12056 -0.002,-0.19824 0.03,-0.23079 0.03,-0.39574 0.126,-0.51334 0.128,-0.62134 0.226,-0.76484 0.226,-0.84177 0.289,-0.91056 0.327,-0.99045 0.323,-1.04444 0.291,-1.03705 0.322,-1.0156 0.259,-0.9542 0.19,-0.90317 0.153,-0.83733 0.048,-0.73081 0.071,-0.64502 0.067,-0.58361 0.027,-0.49411 -0.015,-0.42533 0.039,-0.3373 -0.001,-0.34174 0.059,-0.32103 z"
         __comy="584.746"
         __comx="369.724"
         __timestamp="0x140f947ccca" />
      <path
         style="fill:#000000;stroke:none"
         inkscape:connector-curvature="0"
         id="path3075"
         d="m 381.43514,583.55081 0.276,0.0947 0.332,0.13759 0.288,0.0895 0.298,0.0791 0.49,0.0799 0.473,0.0177 0.583,-0.0414 0.588,-0.12353 0.612,-0.20563 0.643,-0.30846 0.562,-0.35874 0.532,-0.41498 0.428,-0.47192 0.331,-0.49263 0.119,-0.49116 -0.066,-0.50003 -0.432,-0.36911 -0.631,-0.22042 -0.809,-0.0614 -0.996,0.10134 -1.103,0.22412 -1.235,0.37281 -1.234,0.5237 -1.197,0.6746 -1.058,0.77076 -0.961,0.85434 -0.731,0.93719 -0.519,0.9616 -0.317,0.95124 -0.038,0.91501 0.185,0.83733 0.497,0.7064 0.769,0.54146 0.99,0.33877 1.14,0.1117 1.311,-0.0747 1.379,-0.27664 1.462,-0.39944 1.458,-0.57252 1.41,-0.66646 1.341,-0.74043 1.266,-0.80627 1.163,-0.78407 1.068,-0.80848 0.89,-0.72712 0.819,-0.65093 0.654,-0.52888 0.582,-0.45195 0.445,-0.32769 0.276,-0.18344 0.219,-0.088 -0.151,-0.0185 -0.178,-0.0496 0.053,0.0754 0.012,0.18344 -0.061,0.40239 -0.163,0.5348 -0.193,0.66277 -0.295,0.74264 -0.266,0.80183 -0.264,0.74783 -0.229,0.69161 -0.229,0.55033 -0.111,0.31659 0.483,-0.11022 0.397,0.24041 0.091,-0.33952 0.161,-0.58806 0.258,-0.73081 0.323,-0.80331 0.387,-0.8033 0.411,-0.76559 0.46,-0.60876 0.439,-0.45861 0.416,-0.30327 0.41,-0.19306 0.526,-0.14351 0.603,-0.10282 0.724,-0.0451 0.731,-0.0244 -0.0436,-0.0852 -0.68043,-0.0923 -0.72,-0.14202 -0.709,-0.0547 -0.72,0.0503 -0.705,0.19306 -0.635,0.42015 -0.544,0.55476 -0.524,0.69458 -0.443,0.82771 -0.4,0.83733 -0.333,0.83734 -0.267,0.76557 -0.167,0.61838 -0.106,0.48154 0.463,0.52889 0.68,-0.35136 0.151,-0.40683 0.23,-0.55994 0.231,-0.70789 0.261,-0.74857 0.258,-0.79073 0.295,-0.75375 0.201,-0.68865 0.166,-0.57548 0.07,-0.51408 -0.053,-0.39574 -0.211,-0.31067 -0.439,-0.24262 -0.48,0.0784 -0.371,0.15313 -0.381,0.25075 -0.473,0.34839 -0.599,0.46453 -0.658,0.53258 -0.821,0.65241 -0.882,0.72119 -1.031,0.78408 -1.134,0.7604 -1.227,0.78629 -1.283,0.70789 -1.346,0.63688 -1.363,0.53627 -1.359,0.37355 -1.246,0.25445 -1.117,0.0703 -0.894,-0.0814 -0.715,-0.24041 -0.544,-0.37576 -0.355,-0.50003 -0.143,-0.6598 0.028,-0.77373 0.273,-0.83437 0.465,-0.8721 0.647,-0.84916 0.876,-0.78629 0.976,-0.72564 1.099,-0.628 1.128,-0.49041 1.127,-0.35136 0.996,-0.21007 0.841,-0.0917 0.569,0.0355 0.354,0.11762 0.158,0.11317 0,0.22412 -0.078,0.32917 -0.259,0.37576 -0.359,0.39722 -0.454,0.35727 -0.487,0.31659 -0.538,0.27146 -0.503,0.18048 -0.462,0.11762 -0.466,0.0547 -0.38,0.0185 -0.429,-0.017 -0.293,-0.0177 -0.302,-0.008 -0.389,-0.007 -0.315,0.0459 z"
         __comy="584.746"
         __comx="384.776"
         __timestamp="0x140f947d0a1"
         sodipodi:nodetypes="ccccccccccccccccccccccccccccccccccccccccccccccccccccccccccccccccccccccccccccccccccccccccccccccccccccccccccccccccccccccccccccccccccccccccccccccccccccccccccccccccccc" />
      <path
         style="fill:#000000;stroke:none"
         inkscape:connector-curvature="0"
         id="path3077"
         d="m 401.88009,575.68122 0.12474,-0.10873 0.12874,-0.0732 -0.0568,0.0214 -0.13594,0.0429 0.0856,0.23005 0.0608,0.22856 0.0248,0.30771 0.0288,0.51852 0.006,0.5851 -0.0416,0.75671 -0.0664,0.87801 -0.13994,1.02447 -0.16713,1.15614 -0.16392,1.20348 -0.18872,1.2094 -0.13274,1.21161 -0.13194,1.06664 -0.068,1.01929 -0.0416,0.82254 0.0112,0.66129 0.0544,0.47858 0.0376,0.30179 0,0.15386 0.21152,0 0.0268,-0.1361 0.14234,-0.27739 0.10715,-0.48672 0.11595,-0.64205 0.11595,-0.8181 0.0888,-1.0082 0.13114,-1.05628 0.12874,-1.202 0.17832,-1.20348 0.15193,-1.21013 0.14714,-1.15984 0.12234,-1.0511 0.0384,-0.90761 0.0112,-0.78777 -0.0464,-0.62134 -0.076,-0.54367 -0.0808,-0.36763 -0.14873,-0.30253 -0.2295,-0.25224 -0.29267,-0.10208 -0.0568,0.16644 -0.0288,0.0718 -0.0328,0.18048 z"
         __comy="584.746"
         __comx="399.240"
         __timestamp="0x140f947d959"
         sodipodi:nodetypes="ccccccccccccccccccccccccccccccccccccccccccccccccc" />
      <path
         style="fill:#000000;stroke:none"
         inkscape:connector-curvature="0"
         id="path3079"
         d="m 402.11438,583.43319 0.15033,-0.0754 0.13035,-0.0607 0.20151,-0.0503 0.25028,-0.20711 0.35824,-0.23005 0.47899,-0.32102 0.60053,-0.39501 0.73247,-0.44973 0.82843,-0.52074 0.89879,-0.48228 0.8892,-0.52444 0.82763,-0.48746 0.72208,-0.43198 0.55495,-0.40165 0.3496,-0.24224 -0.0321,-0.0951 -0.39263,0.21673 -0.65171,0.22634 -0.79964,0.29219 -0.90359,0.38094 -0.94757,0.44085 -0.93718,0.48302 -0.85002,0.54071 -0.73647,0.46675 -0.60693,0.42606 -0.46539,0.35432 -0.37583,0.30105 -0.16953,0.22782 -0.16552,0.14202 -0.08,0.22931 -0.006,0.16569 z"
         __comy="584.746"
         __comx="404.411"
         __timestamp="0x140f947daf5"
         sodipodi:nodetypes="ccccccccccccccccccccccccccccccccc" />
      <path
         style="fill:#000000;stroke:none"
         inkscape:connector-curvature="0"
         id="path3081"
         d="m 402.46063,581.69417 -0.34065,0.13241 -0.2207,0.22487 -0.20551,0.23226 -0.0416,0.39796 0.0176,0.38685 0.19751,0.45936 0.29587,0.54293 0.40862,0.56661 0.55335,0.6376 0.57334,0.70271 0.6597,0.75301 0.6701,0.73674 0.69569,0.71675 0.65811,0.65537 0.59253,0.57622 0.53416,0.46897 0.40431,0.29227 0.0443,-0.0289 -0.31426,-0.36171 -0.35824,-0.59249 -0.4566,-0.6783 -0.54855,-0.74487 -0.61652,-0.77964 -0.64132,-0.75892 -0.6517,-0.74339 -0.58054,-0.69679 -0.54936,-0.6169 -0.37743,-0.4956 -0.28147,-0.47044 -0.17032,-0.31289 -0.0344,-0.2404 -0.0416,-0.18123 0.008,-0.10577 c 0.0935,-0.2343 0.0806,-0.45653 0.11754,-0.6746 z"
         __comy="584.746"
         __comx="402.853"
         __timestamp="0x140f947dc21"
         sodipodi:nodetypes="ccccccccccccccccccccccccccccccccccc" />
      <path
         style="fill:#000000;stroke:none"
         inkscape:connector-curvature="0"
         id="path3083"
         d="m 410.86343,583.22515 0.098,0.0888 -0.124,0.0148 -0.202,-0.068 -0.061,0.14499 -0.053,0.34173 -0.075,0.4882 -0.138,0.5777 -0.099,0.7249 -0.157,0.75078 -0.065,0.83512 -0.022,0.75004 -0.006,0.66425 0.084,0.51631 0.1,0.31732 0.0126,0.17616 0.0814,0.005 0.033,-0.17086 0.166,-0.30919 0.149,-0.49782 0.192,-0.63835 0.174,-0.74635 0.133,-0.80627 0.17,-0.74487 0.098,-0.72268 0.125,-0.58065 0.056,-0.52592 0.013,-0.33361 0.004,-0.24114 -0.268,-0.30919 -0.321,0.0141 -0.098,0.0888 z"
         __comy="584.746"
         __comx="410.869"
         __timestamp="0x140f947de35"
         sodipodi:nodetypes="ccccccccccccccccccccccccccccccccc" />
      <path
         style="fill:#000000;stroke:none"
         inkscape:connector-curvature="0"
         id="path3085"
         d="m 411.30485,581.12844 0.147,-0.28109 0.127,-0.24706 0.131,-0.2478 0.106,-0.20267 0.023,-0.10503 0.069,-0.0984 0.176,-0.14646 0.347,-0.14277 0.456,-0.14497 0.418,0.0236 0.012,-0.11984 -0.435,-0.0244 -0.528,-0.0488 -0.506,0.002 -0.414,0.0954 -0.391,0.19158 -0.174,0.28109 -0.09,0.27959 0,0.33139 0.061,0.28404 0.081,0.29736 z"
         __comy="584.746"
         __comx="411.715"
         __timestamp="0x140f947df29" />
      <path
         style="fill:#000000;stroke:none"
         inkscape:connector-curvature="0"
         id="path3087"
         d="m 415.20228,582.33878 -0.211,0.21599 -0.128,0.21303 -0.081,0.33582 -0.138,0.35283 -0.098,0.47192 -0.088,0.503 -0.116,0.6058 -0.076,0.6783 -0.105,0.69383 -0.103,0.71676 -0.136,0.69679 -0.102,0.62578 -0.101,0.50373 -0.069,0.36467 -0.03,0.17087 0.302,0.53628 0.741,-0.31289 0.119,-0.25741 0.13,-0.38094 0.258,-0.52075 0.26,-0.62282 0.355,-0.6635 0.356,-0.69162 0.385,-0.63613 0.379,-0.58214 0.366,-0.44899 0.346,-0.341 0.289,-0.1938 0.26,-0.12353 0.16,-0.0392 0.263,0.0244 0.418,0.0236 0.518,0.0466 0.68,0.0474 0.779,-0.0658 0.793,-0.125 0.86,-0.16273 0.804,-0.22635 0.793,-0.21525 0.658,-0.12057 -0.051,-0.0927 -0.654,0.0586 -0.847,0.0259 -0.837,0.0643 -0.846,0.0296 -0.781,0.02 -0.664,0.0303 -0.567,-0.0488 -0.532,-0.0503 -0.435,-0.0244 -0.458,-0.0236 -0.496,0.10578 -0.463,0.21377 -0.431,0.28922 -0.442,0.43124 -0.421,0.51556 -0.409,0.62505 -0.402,0.6672 -0.366,0.70788 -0.366,0.68718 -0.265,0.63244 -0.267,0.54145 -0.133,0.39056 -0.078,0.17678 0.61,-0.11909 0.368,0.34248 0.036,-0.21451 0.061,-0.35876 0.096,-0.51112 0.095,-0.62873 0.126,-0.70271 0.094,-0.73082 0.092,-0.70566 0.055,-0.67313 0.081,-0.60063 0.044,-0.51112 0.033,-0.44456 0.059,-0.37132 -0.015,-0.34026 0.002,-0.22117 -0.145,-0.26629 z"
         __comy="584.746"
         __comx="420.227"
         __timestamp="0x140f947e171"
         sodipodi:nodetypes="ccccccccccccccccccccccccccccccccccccccccccccccccccccccccccccccccccccccccccccccccccc" />
      <path
         style="fill:#000000;stroke:none"
         inkscape:connector-curvature="0"
         id="path3089"
         d="m 430.4855,583.54999 0.006,-0.13098 0.0202,-0.0955 -0.13032,-0.15717 -0.16794,-0.12225 -0.26522,-0.0687 -0.29091,-0.0821 -0.41297,0.042 -0.37259,0.071 -0.38728,0.15019 -0.49924,0.19442 -0.51024,0.23867 -0.59101,0.31142 -0.64974,0.3679 -0.68003,0.42669 -0.67635,0.46104 -0.67636,0.48082 -0.62771,0.4913 -0.53778,0.51401 -0.4506,0.50469 -0.30285,0.50644 -0.13765,0.48665 -0.033,0.4686 0.19272,0.46104 0.38452,0.36673 0.55614,0.30443 0.6947,0.20491 0.89386,0.10245 0.92964,-0.0349 1.04711,-0.16883 1.03518,-0.2957 0.99205,-0.39874 1.03059,-0.42087 -0.1606,-0.15776 -1.01682,0.41505 -1.05537,0.24681 -1.01224,0.16008 -0.93974,0.0588 -0.7562,-0.0344 -0.67176,-0.0879 -0.44968,-0.1368 -0.34598,-0.18976 -0.2175,-0.20258 -0.10921,-0.26078 0.0275,-0.32832 0.1037,-0.38768 0.2386,-0.40515 0.39187,-0.44474 0.48547,-0.47325 0.57724,-0.45871 0.64882,-0.4686 0.64791,-0.45056 0.64423,-0.40864 0.61487,-0.35335 0.55338,-0.29687 0.45243,-0.21654 0.46528,-0.18569 0.2744,-0.11585 0.22943,-0.043 0.0688,-0.0338 0.0707,0.0314 0.15601,0.008 0.0119,-0.009 0.11105,0.0326 0.0808,0.0186 0.18722,0.0972 z"
         __comy="584.746"
         __comx="427.660"
         __timestamp="0x140f947e471" />
      <path
         style="fill:#000000;stroke:none"
         inkscape:connector-curvature="0"
         id="path3091"
         d="m 435.2209,576.12593 -0.14409,0.15817 -0.1505,0.19889 -0.20557,0.31837 -0.10554,0.38014 -0.1762,0.39983 -0.20923,0.55528 -0.20098,0.61773 -0.25513,0.7501 -0.25604,0.81935 -0.28082,0.91301 -0.25054,0.97547 -0.27623,0.97412 -0.24594,0.99923 -0.24412,0.94764 -0.24503,0.89333 -0.15417,0.77319 -0.17987,0.63538 -0.12665,0.50029 -0.0615,0.33466 0.2386,0.52406 0.75436,-0.19822 0.16427,-0.30615 0.19731,-0.33466 0.29917,-0.43988 0.32212,-0.5193 0.43133,-0.52949 0.49097,-0.55595 0.57725,-0.52949 0.60385,-0.48875 0.62405,-0.41816 0.62129,-0.33398 0.54145,-0.24098 0.45977,-0.12694 0.32579,-0.017 0.22209,0.04 0.17528,0.13781 0.17161,0.27695 0.10095,0.42088 0.0551,0.57021 0.034,0.67883 -0.0358,0.75281 -0.0486,0.79423 -0.0523,0.77249 -0.0991,0.6768 -0.10894,2.06639 0.10571,0.0441 0.55137,-1.82776 c 0.002,-0.57078 0.17222,-1.11087 0.34758,-1.66144 l 0.19272,-0.79965 0.145,-0.79762 -0.0266,-0.73857 -0.0652,-0.62587 -0.14041,-0.55325 -0.31019,-0.47653 -0.48639,-0.34959 -0.62129,-0.13713 -0.63781,0.0278 -0.68461,0.18328 -0.66259,0.28986 -0.70297,0.37539 -0.70113,0.46703 -0.65984,0.53085 -0.62771,0.577 -0.53136,0.59601 -0.4717,0.57768 -0.34139,0.54374 -0.30285,0.44599 -0.22392,0.37402 -0.0762,0.18125 0.57357,-0.0659 0.29917,0.25863 0.0578,-0.32923 0.11563,-0.4745 0.18079,-0.64963 0.14684,-0.77658 0.23677,-0.8784 0.23768,-0.95715 0.23586,-0.9938 0.26521,-0.97411 0.23035,-0.97343 0.26155,-0.90351 0.22667,-0.81935 0.22576,-0.75554 0.1606,-0.62316 0.15234,-0.5512 0.12389,-0.44191 0.0156,-0.37268 0.0945,-0.30208 0.0312,-0.2437 -0.0239,-0.19618 z"
         __comy="584.746"
         __comx="437.842"
         __timestamp="0x140f947e6d9"
         sodipodi:nodetypes="cccccccccccccccccccccccccccccccccccccccccccccccccccccccccccccccccccccccccccccccccccccccccccc" />
      <path
         style="fill:#000000;stroke:none"
         inkscape:connector-curvature="0"
         id="path3093"
         d="m 305.721,582.81247 -0.062,-0.0895 -0.179,-0.0984 -0.234,0.0607 -0.126,0.0651 -0.174,0.17975 -0.234,0.25371 -0.171,0.30845 -0.19,0.35876 -0.189,0.38537 -0.19,0.41423 -0.187,0.48746 -0.179,0.50817 -0.183,0.55476 -0.078,0.56957 -0.107,0.55477 0.029,0.6058 0.099,0.55995 0.148,0.53332 0.275,0.45861 0.427,0.41423 0.57,0.2219 0.628,0.034 0.656,-0.18714 0.501,-0.38464 c 0.0821,-0.0636 0.0832,-0.22004 -0.156,-0.13462 l -0.549,0.19527 -0.459,0.005 -0.291,-0.11021 -0.217,-0.16421 -0.229,-0.26185 -0.185,-0.31363 -0.114,-0.43198 -0.097,-0.50151 -0.037,-0.50447 0.09,-0.50743 0.053,-0.53998 0.145,-0.50669 0.149,-0.50594 0.141,-0.47785 0.138,-0.40609 0.139,-0.38686 0.138,-0.36541 0.092,-0.27072 0.159,-0.22857 0.089,-0.15755 0.071,-0.0806 -0.103,-0.0843 0.017,-0.002 0.135,0.007 z"
         __comy="585.023"
         __comx="305.219"
         __timestamp="0x140f94828b1"
         sodipodi:nodetypes="ccccccccccccccccccccccccccccccccccccccccccccccccccc" />
      <path
         style="fill:#000000;stroke:none"
         inkscape:connector-curvature="0"
         id="path3095"
         d="m 307.405,580.43628 0.032,-0.12057 -0.056,-0.18196 0.035,-0.0643 -0.032,-0.1583 -0.088,-0.034 -0.027,-0.0103 0.04,-0.12427 0.193,-0.12353 0.355,-0.1398 0.291,0.0236 0.008,-0.054 -0.301,-0.0244 -0.432,-0.0436 -0.397,0.0214 -0.353,0.16495 -0.225,0.32843 0.109,0.25445 0.099,0.18049 0.167,0.0799 0.206,0.10725 0.163,0.0244 z"
         __comy="585.023"
         __comx="305.709"
         __timestamp="0x140f9482a49" />
      <path
         style="fill:#000000;stroke:none"
         inkscape:connector-curvature="0"
         id="path3097"
         d="m 313.489,575.22538 -0.055,0.0655 -0.044,0.079 -0.071,0.15467 -0.131,0.2397 -0.196,0.30732 -0.263,0.38699 -0.263,0.47739 -0.321,0.56576 -0.316,0.67557 -0.377,0.73851 -0.376,0.80881 -0.403,0.87242 -0.406,0.90455 -0.337,0.96549 -0.369,0.94472 -0.271,0.96951 -0.269,0.8992 -0.206,0.84162 -0.137,0.75725 -0.073,0.66084 0.031,0.54166 0.109,0.47136 0.205,0.35887 0.315,0.29862 0.382,0.19349 0.404,0.1125 0.325,0.0702 0.418,0.0737 0.351,0.0187 0.449,0.0268 0.539,-0.13325 0.458,-0.2571 0.46,-0.36088 0.373,-0.48074 c 0.11385,-0.13883 -0.0829,-0.10758 -0.149,-0.0676 l -0.546,0.34885 -0.524,0.20688 -0.395,0.0931 -0.248,-0.003 -0.273,-0.0609 -0.305,-0.0248 -0.304,-0.0576 -0.266,-0.0603 -0.251,-0.0623 -0.143,-0.0683 -0.144,-0.1386 -0.123,-0.2089 -0.089,-0.35887 -0.034,-0.46332 0.058,-0.60594 0.125,-0.72847 0.189,-0.81752 0.255,-0.8925 0.254,-0.95276 0.352,-0.93335 0.32,-0.95677 0.381,-0.88715 0.385,-0.87442 0.345,-0.80815 0.345,-0.74654 0.274,-0.67892 0.27,-0.56978 0.197,-0.48342 0.196,-0.39971 0.131,-0.3475 0.066,-0.28455 -0.005,-0.19551 -0.044,-0.0951 -0.055,-0.0656 z"
         __comy="585.023"
         __comx="311.245"
         __timestamp="0x140f9482c71"
         sodipodi:nodetypes="ccccccccccccccccccccccccccccccccccccccccccccccccccccccccccccccccccccccc" />
      <path
         style="fill:#000000;stroke:none"
         inkscape:connector-curvature="0"
         id="path3099"
         d="m 323.434,583.90638 0.141,-0.0939 0.092,-0.2478 -0.056,-0.26037 -0.074,-0.18492 -0.15,-0.22117 -0.205,-0.22709 -0.379,-0.14572 -0.461,-0.0702 -0.473,0.0547 -0.52,0.10504 -0.573,0.19453 -0.582,0.31289 -0.657,0.40388 -0.662,0.50669 -0.649,0.59545 -0.648,0.64649 -0.582,0.72342 -0.511,0.72268 -0.415,0.73451 -0.279,0.71233 -0.174,0.64649 -0.036,0.57251 0.192,0.50596 0.475,0.37428 0.734,0.0932 0.771,-0.2086 0.799,-0.37428 0.863,-0.5592 0.908,-0.67017 0.934,-0.78629 0.962,-0.85656 0.897,-0.88467 0.799,-0.85657 0.697,-0.80848 0.565,-0.70862 0.468,-0.61469 0.337,-0.4956 0.205,-0.32324 0.111,-0.18788 -0.942,-0.33064 -0.032,0.0643 -0.098,0.18417 -0.178,0.32917 -0.212,0.55699 -0.21,0.64575 -0.172,0.7397 -0.17,0.82993 -0.137,0.86248 -0.065,0.84842 -0.084,0.76781 0.093,0.69382 0.086,0.46897 0.262,0.38686 0.353,0.16495 0.304,-0.0806 -0.136,-0.20342 -0.09,0.0643 0.091,-0.12501 -0.001,-0.28848 0.086,-0.40017 0.027,-0.65685 0.113,-0.72859 0.066,-0.84104 0.126,-0.82697 0.158,-0.81071 0.156,-0.70788 0.184,-0.60876 0.182,-0.50522 0.149,-0.29809 0.1,-0.20268 0.033,-0.0799 -1.007,-0.18567 -0.086,0.14942 -0.189,0.30475 -0.319,0.46896 -0.451,0.5925 -0.55,0.69013 -0.681,0.78481 -0.776,0.83216 -0.874,0.8536 -0.94,0.83216 -0.904,0.75819 -0.863,0.63317 -0.777,0.50225 -0.645,0.30105 -0.41,0.13019 -0.118,-0.003 -0.05,-0.0599 -0.071,-0.21821 0.03,-0.39277 0.153,-0.55995 0.246,-0.63909 0.373,-0.66498 0.472,-0.67682 0.534,-0.67608 0.598,-0.60877 0.599,-0.56291 0.584,-0.45861 0.589,-0.36836 0.469,-0.26629 0.41,-0.14276 0.399,-0.088 0.249,-0.0421 0.195,0.0258 0.08,0 0.058,0.0614 0.177,0.16495 0.123,0.10504 0.141,0.12649 0.092,0.13758 0.076,0.0991 z"
         __comy="585.023"
         __comx="320.960"
         __timestamp="0x140f9482eb5" />
      <path
         style="fill:#000000;stroke:none"
         inkscape:connector-curvature="0"
         id="path3101"
         d="m 329.862,582.18955 0.037,-0.1827 -0.117,-0.18863 -0.252,-0.11317 -0.445,0.0133 -0.236,0.27295 -0.049,0.0991 -0.075,0.21895 -0.109,0.31881 -0.11,0.40313 -0.107,0.54219 -0.106,0.5925 -0.07,0.71084 -0.069,0.70715 -0.035,0.75522 -0.035,0.70641 0,0.64945 -0.034,0.55551 0,0.44307 0,0.33804 0.023,0.31437 0.656,0.36615 0.569,-0.4305 0.138,-0.27738 0.164,-0.34027 0.224,-0.47414 0.282,-0.51038 0.378,-0.5814 0.478,-0.63688 0.51,-0.63466 0.575,-0.61246 0.568,-0.58288 0.582,-0.47487 0.586,-0.38539 0.504,-0.28478 0.487,-0.18862 0.415,-0.11835 0.374,-0.0163 0.358,0.0533 0.348,0.11687 0.316,0.23818 0.33,0.36541 0.261,0.49634 0.247,0.63391 0.153,0.70936 0.101,0.80553 0.022,0.82254 0.044,0.78111 -0.027,0.6783 -0.077,0.54219 -0.099,0.31659 0.383,0.0658 0.14829,-0.27715 0.26671,-0.55278 0.235,-0.7212 0.11,-0.81144 0.087,-0.86693 -0.095,-0.88392 -0.175,-0.7863 -0.278,-0.71824 -0.329,-0.61321 -0.458,-0.50372 -0.537,-0.38909 -0.636,-0.22116 -0.626,-0.091 -0.676,0.0318 -0.635,0.17161 -0.628,0.24484 -0.612,0.34321 -0.66,0.43494 -0.665,0.5385 -0.613,0.6243 -0.605,0.64131 -0.541,0.66869 -0.506,0.66646 -0.409,0.62503 -0.308,0.55182 -0.235,0.49115 -0.164,0.33508 -0.125,0.25372 0.372,-0.0925 0.525,0.22117 0.023,-0.0718 0,-0.33804 0,-0.42532 0.031,-0.55476 0.001,-0.65315 0.03,-0.69384 0.031,-0.74042 0.062,-0.69236 0.061,-0.68866 0.091,-0.5666 0.09,-0.51926 0.086,-0.36911 0.089,-0.30845 0.056,-0.21525 0.017,-0.0947 -0.171,0.0806 -0.118,0.0126 0.011,-0.11244 0.014,-0.0444 0.104,0.10652 z"
         __comy="585.023"
         __comx="335.534"
         __timestamp="0x140f94831a5"
         sodipodi:nodetypes="ccccccccccccccccccccccccccccccccccccccccccccccccccccccccccccccccccccccccccccccccccccccccccccccccccccccc" />
      <path
         style="fill:#000000;stroke:none"
         inkscape:connector-curvature="0"
         id="path3103"
         d="m 282.59234,590.64443 c 0.32963,-1.4e-4 0.2619,-0.004 0.42918,-0.28574 l 0.10113,-0.29715 0.12652,-0.4002 0.14941,-0.52559 0.20456,-0.60461 0.21376,-0.71051 0.25144,-0.76091 0.23427,-0.78322 0.29736,-0.77808 0.30893,-0.75461 0.3547,-0.73685 0.3038,-0.70709 0.35788,-0.65441 0.34506,-0.63323 0.35305,-0.60631 0.3693,-0.58285 0.35105,-0.56166 0.35319,-0.56051 0.32861,-0.52788 0.37753,-0.50555 0.34423,-0.50555 0.3708,-0.45517 0.3225,-0.43226 0.31654,-0.38189 0.27102,-0.35955 0.24664,-0.33092 0.21338,-0.28685 0.19182,-0.30573 0.0961,-0.25822 0.0861,-0.15229 0.10721,-0.15344 0.0386,-0.15001 -0.48248,0.0406 -0.47334,-0.28569 1.8e-4,0.19981 -0.0231,0.38073 -6.2e-4,0.43514 -0.0231,0.50841 -0.002,0.6149 -0.01,0.6653 0.0204,0.72025 0.0311,0.74773 0.0791,0.77121 0.0789,0.77694 0.15897,0.80383 0.17007,0.82046 0.1902,0.7941 0.18924,0.78781 0.17633,0.76778 0.19589,0.74029 0.16553,0.68704 0.16188,0.61548 0.13555,0.50383 0.0961,0.42311 0.0597,0.29371 0.0348,0.2399 c 0,0 0.0338,0.6329 0.52489,0.63608 0.6468,0.004 0.68478,-0.40135 0.68478,-0.40135 l 0.0556,-0.3481 0.0739,-0.39334 0.14836,-0.49238 0.20867,-0.57769 0.26993,-0.70823 0.32685,-0.78379 0.38538,-0.86511 0.38631,-0.91034 0.50686,-0.94011 0.45035,-0.99735 0.48001,-0.99107 0.46041,-0.96357 0.48917,-0.91492 0.4392,-0.89374 0.39236,-0.78723 0.36757,-0.70651 0.33551,-0.57941 0.28174,-0.46261 0.2538,-0.27768 -0.1931,-0.0624 -0.31604,-0.15172 0.0892,0.24047 0.14034,0.60689 0.0571,0.76605 0.0701,0.9905 0.0649,1.16797 0.0623,1.35348 0.0646,0.74372 0.0643,0.73743 0.0624,0.76319 0.0627,0.76663 0.0782,0.76663 0.078,0.76491 0.1621,1.4823 0.19817,1.36436 0.29239,1.14507 0.3041,0.94412 0.32283,0.67846 0.22899,0.38302 0.11811,0.13127 c 0.28484,0.19419 0.30464,0.1284 0.30033,-0.0239 l -0.005,-0.40619 -0.11563,-0.64525 -0.14455,-0.88915 -0.17585,-1.09641 -0.18791,-1.33459 -0.16406,-1.47142 -0.0794,-0.76319 -0.079,-0.7609 -0.062,-0.76091 -0.0626,-0.76491 -0.0663,-0.73972 -0.0658,-0.73285 -0.065,-1.34603 -0.0689,-1.17485 -0.0697,-0.99564 -0.0629,-0.81243 -0.16835,-0.71739 c 0,0 -0.12252,-0.37661 -0.248,-0.52329 -0.17605,-0.2058 -0.40577,-0.40501 -0.67147,-0.45747 -0.22371,-0.0442 -0.47004,0.0306 -0.66931,0.14142 -0.15518,0.0863 -0.36844,0.38475 -0.36844,0.38475 l -0.31,0.5044 -0.34357,0.59201 -0.3707,0.71967 -0.39459,0.79183 -0.43573,0.88858 -0.48736,0.91834 -0.46392,0.9716 -0.48176,0.99507 -0.44636,0.98877 -0.50863,0.94411 -0.39593,0.92294 -0.38681,0.86682 -0.33115,0.79468 -0.27408,0.71796 -0.2103,0.59373 -0.15689,0.52615 -0.0806,0.42197 -0.0482,0.31375 0.49947,0.10763 0.49408,0.33093 -0.0394,-0.26966 -0.0683,-0.31776 -0.1006,-0.442 -0.14203,-0.51471 -0.15891,-0.60689 -0.17082,-0.68819 -0.19385,-0.73629 -0.17477,-0.76032 -0.19023,-0.79125 -0.18849,-0.78495 -0.171,-0.809 -0.15368,-0.77465 -0.0793,-0.75116 -0.0782,-0.75632 -0.0341,-0.72884 -0.0194,-0.70651 0.006,-0.65842 7.7e-4,-0.60746 0.0238,-0.51014 -0.003,-0.43055 0.027,-0.3836 -0.009,-0.30916 c 0,0 0.17083,-0.64998 -0.59633,-0.64239 -0.39812,0.0106 -0.4404,0.23504 -0.67323,0.45058 -0.096,0.14024 -0.14725,0.29677 -0.20353,0.45518 l -0.16063,0.25477 -0.20435,0.27311 -0.24665,0.33092 -0.26041,0.35326 -0.31656,0.38188 -0.32311,0.43398 -0.37677,0.46147 -0.34961,0.51299 -0.38212,0.513 -0.3376,0.54162 -0.35275,0.55993 -0.35408,0.5588 -0.37355,0.588 -0.36312,0.61662 -0.34452,0.6401 -0.37017,0.66929 -0.30473,0.71854 -0.35676,0.74029 -0.31136,0.7735 -0.29564,0.80041 -0.22918,0.79582 -0.23913,0.76663 -0.20101,0.71567 -0.18763,0.61777 -0.12888,0.54391 -0.0919,0.41451 -0.0686,0.36472 c -5e-4,0.58412 0.24457,0.58268 0.47598,0.5846 z"
         __comy="580.554"
         __comx="288.361"
         __timestamp="0x140f9474802"
         sodipodi:nodetypes="cccccccccccccccccccccccccccccccccccccccccccccccccccccccccscccccccccccccccccccccccccccccccccccccccccccccccccccccccccccssscccccccccccccccccccccccccccccccccccccccccccccccccccccccccccccccccccccccccc" />
    </g>
  </g>
</svg>
